<?xml version="1.0" encoding="iso-8859-1"?>
<!-- Generator: Adobe Illustrator 19.0.0, SVG Export Plug-In . SVG Version: 6.00 Build 0)  -->
<svg version="1.1" id="Capa_1" xmlns="http://www.w3.org/2000/svg" xmlns:xlink="http://www.w3.org/1999/xlink" x="0px" y="0px"
	 viewBox="0 0 512 512" style="enable-background:new 0 0 512 512;" xml:space="preserve">
<path style="fill:#FFBC33;" d="M459.24,149.171c-29.275-29.275-76.736-29.275-106.011,0s-29.275,76.736,0,106.011
	c29.275,29.275,76.736,29.275,106.011,0S488.515,178.444,459.24,149.171z M374.431,233.979c-17.565-17.565-17.565-46.042,0-63.607
	c17.565-17.565,46.042-17.565,63.607,0s17.565,46.042,0,63.607S391.996,251.544,374.431,233.979z"/>
<path style="fill:#F28618;" d="M224.017,422.801c5.854,5.854,15.348,5.854,21.202,0l42.404-42.404
	c5.854-5.854,5.854-15.348,0-21.202l-72.209-72.209c-161.333,161.333,9.862-9.862-148.415,148.415l72.209,72.209
	c5.854,5.854,15.348,5.854,21.202,0l42.404-42.404c5.854-5.854,5.854-15.348,0-21.202l-10.602-10.602l21.202-21.202L224.017,422.801
	z"/>
<path style="fill:#FFDE33;" d="M77.599,446.002l-42.404-42.404c-5.855-5.855-5.855-15.347,0-21.202l180.219-180.219l63.607,63.607
	L98.802,446.002C92.947,451.857,83.454,451.857,77.599,446.002z"/>
<path style="fill:#FFBC33;" d="M56.397,424.799l21.202,21.202c5.854,5.854,15.348,5.854,21.202,0L279.02,265.782l-31.804-31.804
	L56.397,424.799z"/>
<g>
	<path style="fill:#FFDE33;" d="M332.027,21.956c-29.275-29.275-76.736-29.275-106.011,0s-29.275,76.736,0,106.011
		s76.736,29.275,106.011,0C361.302,98.693,361.302,51.231,332.027,21.956z M247.218,106.765c-17.565-17.565-17.565-46.042,0-63.607
		s46.042-17.565,63.607,0c17.565,17.565,17.565,46.042,0,63.607C293.26,124.33,264.783,124.33,247.218,106.765z"/>
	<path style="fill:#FFDE33;" d="M332.027,149.171c-29.275-29.275-76.736-29.275-106.011,0s-29.275,76.736,0,106.011
		c29.275,29.275,76.736,29.275,106.011,0C361.302,225.907,361.302,178.444,332.027,149.171z M247.218,233.979
		c-17.565-17.565-17.565-46.042,0-63.607s46.042-17.565,63.607,0c17.565,17.565,17.565,46.042,0,63.607
		C293.26,251.544,264.783,251.544,247.218,233.979z"/>
</g>
<path style="fill:#FFBC33;" d="M310.825,233.979c-17.565,17.565-46.042,17.565-63.607,0l-21.202,21.202
	c29.275,29.275,76.736,29.275,106.011,0c29.275-29.275,29.275-76.736,0-106.011l-21.202,21.202
	C328.389,187.937,328.389,216.415,310.825,233.979z"/>
<path style="fill:#FFDE33;" d="M459.24,21.956c-29.275-29.275-76.736-29.275-106.011,0s-29.275,76.736,0,106.011
	s76.736,29.275,106.011,0S488.515,51.231,459.24,21.956z M374.431,106.765c-17.565-17.565-17.565-46.042,0-63.607
	s46.042-17.565,63.607,0s17.565,46.042,0,63.607S391.996,124.33,374.431,106.765z"/>
<path style="fill:#FFBC33;" d="M438.038,106.765c-17.565,17.565-46.042,17.565-63.607,0l-21.202,21.202
	c29.275,29.275,76.736,29.275,106.011,0s29.275-76.736,0-106.011l-21.202,21.202C455.603,60.723,455.603,89.202,438.038,106.765z"/>
<g>
</g>
<g>
</g>
<g>
</g>
<g>
</g>
<g>
</g>
<g>
</g>
<g>
</g>
<g>
</g>
<g>
</g>
<g>
</g>
<g>
</g>
<g>
</g>
<g>
</g>
<g>
</g>
<g>
</g>
</svg>
